<?xml version="1.0" encoding="UTF-8"?>
<svg id="Layer_2" data-name="Layer 2" xmlns="http://www.w3.org/2000/svg" viewBox="0 0 82.33 108.5">
  <defs>
    <style>
      .cls-1 {
        fill: #fff;
      }

      .cls-2 {
        fill: #c2242d;
      }
    </style>
  </defs>
  <g id="Layer_3" data-name="Layer 3">
    <g>
      <path class="cls-1" d="M0,44.56c0-2.75,1.05-5.5,3.13-7.59L26.02,14.09s2.46-2.46,5.4-5.39c1.99-1.98,4.19-4.18,6-5.98.76-.76,1.45-1.44,2.02-2.01.95-.94,2.48-.94,3.43,0,.61.6,1.37,1.36,2.24,2.23.04.04.09.09.13.13l4.02,4.01.07.07c2.17,2.17,4.63,4.62,7.18,7.17.13.13.26.26.4.4.14.14.29.29.43.43,1.29,1.29,2.6,2.6,3.91,3.91,1.44,1.44,2.88,2.88,4.27,4.27l1.39,1.39c.91.9,1.79,1.79,2.64,2.64l1.73,1.73.18.18c1.64,1.64,3.1,3.09,4.29,4.29.92.92,1.69,1.69,2.26,2.25.76.76,1.18,1.18,1.18,1.18.48.48.91,1,1.28,1.55.39.58.73,1.19,1,1.82.47,1.1.75,2.25.83,3.42.22,3.01-.81,6.1-3.1,8.39-4.17,4.17-11,4.17-15.18,0l-5.02-5.02-2.17-2.17-.17-.17-4.76-4.76v57.72c0,.13,0,.25,0,.38-.06,1.76-.56,3.41-1.37,4.87-.08.14-.17.29-.25.42-1.9,3.04-5.28,5.07-9.1,5.07-2.95,0-5.64-1.21-7.58-3.16s-3.15-4.63-3.15-7.58v-57.73l-.94.94-1.11,1.11-1.42,1.42-8.46,8.46c-.26.26-.53.5-.81.73-.29.24-.58.46-.88.65-1.5,1.01-3.2,1.61-4.93,1.81-.07,0-.14.01-.21.02-.18.01-.35.03-.53.04-.17,0-.34.01-.5.01s-.31,0-.47,0c-.08,0-.17,0-.25-.01-.12,0-.24-.02-.37-.03-.03,0-.07,0-.11,0-.13-.01-.26-.03-.4-.05-.18-.03-.36-.06-.54-.1-.13-.02-.26-.05-.39-.08-.02,0-.04,0-.06-.01-.13-.03-.26-.07-.39-.11-.14-.04-.27-.08-.41-.12-.09-.03-.18-.06-.27-.1-.11-.04-.23-.08-.34-.13-.16-.06-.31-.12-.47-.2h0c-1.05-.47-2.02-1.13-2.89-1.97-2.19-2.11-3.29-4.92-3.29-7.74Z"/>
      <polygon class="cls-2" points="30.43 45.13 38.59 47.62 51.9 52.43 51.9 58.31 30.64 50.63 30.43 50.56 30.43 45.13"/>
      <polygon class="cls-2" points="30.43 66.29 30.43 60.44 51.9 67.84 51.9 73.69 30.43 66.29"/>
      <polygon class="cls-2" points="30.43 80.84 30.43 74.99 51.9 82.39 51.9 88.24 30.43 80.84"/>
      <path class="cls-2" d="M30.43,96.6v-5.85l21.46,7.4c-.08,1.98-.65,3.73-1.63,5.29l-19.84-6.83Z"/>
    </g>
  </g>
</svg>