<?xml version="1.0" encoding="UTF-8"?>
<svg id="Layer_2" data-name="Layer 2" xmlns="http://www.w3.org/2000/svg" viewBox="0 0 1440.88 1023">
  <defs>
    <style>
      .cls-1 {
        fill: #fff;
      }
    </style>
  </defs>
  <g id="Layer_3" data-name="Layer 3">
    <g>
      <path class="cls-1" d="M.2,941.26c20.84-14.02,66.67-19.05,91.33-14.25s49.31,23.97,74.32,21.63c42.6-3.98,78.6-36.99,121.3-39.75,51.55-3.33,95.45,37.64,146.27,46.93,79.62,14.56,155.47-50.33,236.19-44.43,48.8,3.56,93.88,32.9,142.78,31.2,44.06-1.53,85.35-28.31,129.28-24.55,42.53,3.64,80.75,35.62,123.18,30.96,37.8-4.15,68.37-36.74,106.33-39.01,33.05-1.98,62.81,19.43,95.38,25.32,27.39,4.96,55.38-1.26,83.02-4.59,27.64-3.34,91.29-17.31,91.29,10.53-.01,37.66-.67,51.67-.67,81.74H.2s-.46-58.4,0-81.74Z"/>
      <circle class="cls-1" cx="178.12" cy="865.85" r="7.5"/>
      <circle class="cls-1" cx="61.79" cy="259.58" r="7.5"/>
      <circle class="cls-1" cx="234.79" cy="612.22" r="7.5"/>
      <circle class="cls-1" cx="371.76" cy="424.27" r="7.5"/>
      <circle class="cls-1" cx="624.56" cy="183.61" r="7.5"/>
      <circle class="cls-1" cx="867.36" cy="191.11" r="7.5"/>
      <circle class="cls-1" cx="1082.18" cy="409.27" r="7.5"/>
      <circle class="cls-1" cx="1383.18" cy="551.78" r="7.5"/>
      <circle class="cls-1" cx="986.98" cy="795.61" r="7.5"/>
      <circle class="cls-1" cx="1117.18" cy="7.5" r="7.5"/>
      <circle class="cls-1" cx="1415.68" cy="176.11" r="7.5"/>
      <circle class="cls-1" cx="392.99" cy="823.97" r="5"/>
      <circle class="cls-1" cx="567.4" cy="813.97" r="5"/>
      <circle class="cls-1" cx="120.44" cy="406.31" r="5"/>
      <circle class="cls-1" cx="74.29" cy="783.11" r="5"/>
      <circle class="cls-1" cx="115.44" cy="108.31" r="5"/>
      <circle class="cls-1" cx="459.26" cy="199.71" r="5"/>
      <circle class="cls-1" cx="1094.68" cy="134.62" r="5"/>
      <circle class="cls-1" cx="1369.11" cy="299.68" r="5"/>
      <circle class="cls-1" cx="1388.18" cy="694.68" r="5"/>
      <circle class="cls-1" cx="323.82" cy="43" r="5"/>
      <circle class="cls-1" cx="54.29" cy="543.61" r="5"/>
    </g>
  </g>
</svg>