<?xml version="1.0" encoding="UTF-8"?>
<svg id="Layer_2" data-name="Layer 2" xmlns="http://www.w3.org/2000/svg" viewBox="0 0 113.82 150">
  <defs>
    <style>
      .cls-1 {
        fill: #c70039;
      }

      .cls-2 {
        fill: #fff;
      }
    </style>
  </defs>
  <g id="Layer_3" data-name="Layer 3">
    <g>
      <path class="cls-2" d="M113.82,88.39c0,3.8-1.45,7.61-4.33,10.49l-31.64,31.64s-3.4,3.4-7.47,7.45c-2.75,2.74-5.8,5.78-8.3,8.27-1.05,1.04-2.01,1.99-2.8,2.78-1.31,1.3-3.43,1.3-4.74,0-.84-.83-1.89-1.88-3.1-3.09-.06-.06-.12-.12-.18-.18l-5.56-5.54-.1-.1c-3-2.99-6.4-6.39-9.93-9.91-.18-.18-.36-.36-.55-.55-.2-.2-.39-.39-.59-.59-1.79-1.78-3.6-3.6-5.41-5.4-1.99-1.99-3.98-3.98-5.91-5.9l-1.92-1.92c-1.25-1.25-2.48-2.47-3.65-3.64l-2.39-2.39-.24-.24c-2.26-2.26-4.28-4.27-5.94-5.93-1.27-1.27-2.33-2.33-3.12-3.12-1.04-1.04-1.62-1.62-1.62-1.62-.67-.67-1.26-1.38-1.76-2.14-.54-.8-1.01-1.64-1.38-2.51-.65-1.52-1.03-3.12-1.15-4.73-.31-4.17,1.12-8.43,4.29-11.6,5.77-5.77,15.21-5.77,20.98,0l6.94,6.94,3,2.99.23.23,6.59,6.59V14.84c0-.18,0-.35,0-.52.09-2.43.77-4.72,1.9-6.73.11-.2.23-.39.35-.59C46.95,2.81,51.62,0,56.9,0c4.08,0,7.79,1.67,10.49,4.36s4.36,6.4,4.36,10.48v79.81s1.3-1.3,1.3-1.3l1.54-1.54,1.97-1.97,11.7-11.7c.36-.36.73-.69,1.11-1.01.39-.32.8-.63,1.22-.9,2.07-1.4,4.42-2.23,6.82-2.5.1-.01.19-.02.29-.03.24-.02.48-.04.73-.05.23-.01.47-.02.69-.02s.43,0,.65.01c.11,0,.24.01.35.02.17.01.34.03.51.04.04,0,.1,0,.15.01.18.02.36.04.55.07.25.04.5.08.75.13.18.03.36.07.54.11.03,0,.05.01.08.02.18.04.36.1.54.15.19.05.38.11.57.17.13.04.25.08.38.13.15.05.31.11.47.18.22.08.43.17.65.27h0c1.45.66,2.8,1.56,4,2.72,3.03,2.91,4.54,6.8,4.54,10.7Z"/>
      <polygon class="cls-1" points="71.75 90.38 42.07 80.28 42.07 69.39 71.45 80 71.75 80.1 71.75 90.38"/>
      <polygon class="cls-1" points="71.75 58.35 71.75 69.2 42.07 58.98 42.07 48.12 71.75 58.35"/>
      <polygon class="cls-1" points="71.75 38.24 71.75 49.09 42.07 38.86 42.07 28.01 71.75 38.24"/>
      <path class="cls-1" d="M44.32,7.01l27.43,9.45v10.86s-29.68-10.23-29.68-10.23v-2.23c0-.18,0-.35,0-.52.09-2.43.77-4.72,1.9-6.73.11-.2.35-.59.35-.59Z"/>
    </g>
  </g>
</svg>