<?xml version="1.0" encoding="UTF-8"?>
<svg id="Layer_2" data-name="Layer 2" xmlns="http://www.w3.org/2000/svg" viewBox="0 0 145.78 131.33">
  <defs>
    <style>
      .cls-1 {
        fill: #1e4d2b;
        stroke: #1e4d2b;
      }

      .cls-1, .cls-2 {
        stroke-miterlimit: 10;
      }

      .cls-2 {
        fill: #c70039;
        stroke: #c70039;
      }
    </style>
  </defs>
  <g id="Layer_3" data-name="Layer 3">
    <path class="cls-1" d="M72.89,15.16C54.9-2.83,27.39-4.49,11.45,11.45c-15.94,15.94-14.28,43.45,3.7,61.44L72.89,15.16Z"/>
    <path class="cls-2" d="M130.62,72.89c17.99-17.99,19.65-45.5,3.7-61.44-15.94-15.94-43.45-14.28-61.44,3.7l57.73,57.73Z"/>
    <rect class="cls-2" x="20.79" y="59.28" width="27.22" height="27.22" transform="translate(-41.47 45.67) rotate(-45)"/>
    <rect class="cls-1" x="40.04" y="40.04" width="27.22" height="27.22" transform="translate(-22.22 53.64) rotate(-45)"/>
    <rect class="cls-2" x="59.28" y="20.79" width="27.22" height="27.22" transform="translate(-2.98 61.62) rotate(-45)"/>
    <rect class="cls-1" x="40.04" y="78.53" width="27.22" height="27.22" transform="translate(-49.44 64.92) rotate(-45)"/>
    <rect class="cls-2" x="59.28" y="59.28" width="27.22" height="27.22" transform="translate(-30.19 72.89) rotate(-45)"/>
    <rect class="cls-1" x="78.52" y="40.04" width="27.22" height="27.22" transform="translate(-10.95 80.86) rotate(-45)"/>
    <rect class="cls-2" x="59.28" y="97.77" width="27.22" height="27.22" transform="translate(-57.41 84.16) rotate(-45)"/>
    <rect class="cls-1" x="78.52" y="78.53" width="27.22" height="27.22" transform="translate(-38.16 92.13) rotate(-45)"/>
    <rect class="cls-2" x="97.77" y="59.28" width="27.22" height="27.22" transform="translate(-18.92 100.1) rotate(-45)"/>
  </g>
</svg>