<?xml version="1.0" encoding="UTF-8"?>
<svg id="Layer_2" data-name="Layer 2" xmlns="http://www.w3.org/2000/svg" viewBox="0 0 145.78 151.21">
  <defs>
    <style>
      .cls-1 {
        fill: #c70039;
        stroke: #c70039;
      }

      .cls-1, .cls-2 {
        stroke-miterlimit: 10;
      }

      .cls-2 {
        fill: #fff;
        stroke: #fff;
      }
    </style>
  </defs>
  <g id="Layer_3" data-name="Layer 3">
    <g>
      <rect class="cls-2" x="54.48" y="10.24" width="36.81" height="17.34" transform="translate(53.98 91.8) rotate(-90)"/>
      <path class="cls-2" d="M72.89,35.03c-17.99-17.99-45.5-19.65-61.44-3.7-15.94,15.94-14.28,43.45,3.7,61.44l57.73-57.73Z"/>
      <path class="cls-1" d="M130.62,92.77c17.99-17.99,19.65-45.5,3.7-61.44-15.94-15.94-43.45-14.28-61.44,3.7l57.73,57.73Z"/>
      <rect class="cls-1" x="20.79" y="79.16" width="27.22" height="27.22" transform="translate(-55.52 51.5) rotate(-45)"/>
      <rect class="cls-2" x="40.04" y="59.92" width="27.22" height="27.22" transform="translate(-36.28 59.47) rotate(-45)"/>
      <rect class="cls-1" x="59.28" y="40.67" width="27.22" height="27.22" transform="translate(-17.03 67.44) rotate(-45)"/>
      <rect class="cls-2" x="40.04" y="98.4" width="27.22" height="27.22" transform="translate(-63.49 70.74) rotate(-45)"/>
      <rect class="cls-1" x="59.28" y="79.16" width="27.22" height="27.22" transform="translate(-44.25 78.71) rotate(-45)"/>
      <rect class="cls-2" x="78.52" y="59.92" width="27.22" height="27.22" transform="translate(-25 86.68) rotate(-45)"/>
      <rect class="cls-1" x="59.28" y="117.65" width="27.22" height="27.22" transform="translate(-71.46 89.98) rotate(-45)"/>
      <rect class="cls-2" x="78.52" y="98.4" width="27.22" height="27.22" transform="translate(-52.22 97.95) rotate(-45)"/>
      <rect class="cls-1" x="97.77" y="79.16" width="27.22" height="27.22" transform="translate(-32.98 105.93) rotate(-45)"/>
    </g>
  </g>
</svg>