<?xml version="1.0" encoding="UTF-8"?>
<svg id="Layer_3" data-name="Layer 3" xmlns="http://www.w3.org/2000/svg" viewBox="0 0 1920 1080">
  <defs>
    <style>
      .cls-1 {
        fill: #fff;
      }
    </style>
  </defs>
  <path class="cls-1" d="M.27,993.7c27.77-14.81,88.84-20.11,121.7-15.05,32.86,5.07,65.71,25.3,99.03,22.84,56.77-4.2,104.73-39.05,161.63-41.96,68.7-3.51,127.19,39.73,194.91,49.55,106.09,15.38,207.17-53.13,314.73-46.91,65.02,3.76,125.1,34.74,190.26,32.94,58.71-1.62,113.73-29.88,172.27-25.91,56.67,3.84,107.6,37.6,164.14,32.68,50.37-4.38,91.11-38.78,141.69-41.19,44.04-2.09,83.69,20.51,127.1,26.73,36.5,5.23,73.8-1.33,110.62-4.85,36.83-3.52,121.65-18.28,121.64,11.11-.01,39.76-.89,54.55-.89,86.3H.27s-.61-61.65,0-86.3Z"/>
  <ellipse class="cls-1" cx="207.37" cy="914.1" rx="8.73" ry="7.92"/>
  <ellipse class="cls-1" cx="110.24" cy="286.5" rx="8.73" ry="7.92"/>
  <ellipse class="cls-1" cx="273.35" cy="646.34" rx="8.73" ry="7.92"/>
  <ellipse class="cls-1" cx="925.59" cy="775.72" rx="8.73" ry="7.92"/>
  <ellipse class="cls-1" cx="255.88" cy="37.2" rx="8.73" ry="7.92"/>
  <ellipse class="cls-1" cx="487.49" cy="209.68" rx="8.73" ry="7.92"/>
  <ellipse class="cls-1" cx="1259.88" cy="432.08" rx="8.73" ry="7.92"/>
  <ellipse class="cls-1" cx="1180.01" cy="67.3" rx="8.73" ry="7.92"/>
  <ellipse class="cls-1" cx="1372.08" cy="959.33" rx="8.73" ry="7.92"/>
  <ellipse class="cls-1" cx="1610.31" cy="582.53" rx="8.73" ry="7.92"/>
  <ellipse class="cls-1" cx="1861.59" cy="860.94" rx="8.73" ry="7.92"/>
  <ellipse class="cls-1" cx="1149.05" cy="839.94" rx="8.73" ry="7.92"/>
  <ellipse class="cls-1" cx="1861.59" cy="392.9" rx="8.73" ry="7.92"/>
  <ellipse class="cls-1" cx="92.78" cy="512.68" rx="8.73" ry="7.92"/>
  <ellipse class="cls-1" cx="841.18" cy="0" rx="8.73" ry="7.92"/>
  <ellipse class="cls-1" cx="1831.04" cy="614.42" rx="8.73" ry="7.92"/>
  <ellipse class="cls-1" cx="432.87" cy="339.7" rx="8.73" ry="7.92"/>
  <ellipse class="cls-1" cx="1602.43" cy="100.68" rx="8.73" ry="7.92"/>
  <ellipse class="cls-1" cx="566.35" cy="905.02" rx="5.82" ry="5.28"/>
  <ellipse class="cls-1" cx="560.53" cy="627.62" rx="5.82" ry="5.28"/>
  <ellipse class="cls-1" cx="418.31" cy="379.7" rx="5.82" ry="5.28"/>
  <ellipse class="cls-1" cx="863.62" cy="384.98" rx="5.82" ry="5.28"/>
  <ellipse class="cls-1" cx="62.48" cy="839.94" rx="5.82" ry="5.28"/>
  <ellipse class="cls-1" cx="748.16" cy="439.99" rx="5.82" ry="5.28"/>
  <ellipse class="cls-1" cx="1051.91" cy="67.3" rx="5.82" ry="5.28"/>
  <ellipse class="cls-1" cx="1300.62" cy="646.34" rx="5.82" ry="5.28"/>
  <ellipse class="cls-1" cx="1274.43" cy="142.13" rx="5.82" ry="5.28"/>
  <ellipse class="cls-1" cx="1510.11" cy="337.06" rx="5.82" ry="5.28"/>
  <ellipse class="cls-1" cx="1816.49" cy="72.58" rx="5.82" ry="5.28"/>
  <ellipse class="cls-1" cx="1616.13" cy="733.39" rx="5.82" ry="5.28"/>
  <ellipse class="cls-1" cx="691.78" cy="88.21" rx="5.82" ry="5.28"/>
  <ellipse class="cls-1" cx="63.2" cy="573.9" rx="5.82" ry="5.28"/>
</svg>